HIERARCHY
ROOT SpineBase
{
  OFFSET 0.000000 0.000000 0.000000
  CHANNELS 6 Xposition Yposition Zposition Zrotation Xrotation Yrotation
  JOINT SpineMid
  {
    OFFSET 0.000000 28.323901 0.000000
    CHANNELS 3 Zrotation Xrotation Yrotation
    JOINT SpineShoulder
    {
      OFFSET -0.122707 21.054726 -0.595517
      CHANNELS 3 Zrotation Xrotation Yrotation
      JOINT Neck
      {
        OFFSET -0.080471 6.970275 -0.471500
        CHANNELS 3 Zrotation Xrotation Yrotation
        JOINT Head
        {
          OFFSET -2.351636 13.163370 0.459150
          CHANNELS 3 Zrotation Xrotation Yrotation
          End Site
          {
            OFFSET 0 0 0
          }
        }
      }
      JOINT ShoulderLeft
      {
        OFFSET -13.580601 -4.047955 6.791355
        CHANNELS 3 Zrotation Xrotation Yrotation
        JOINT ElbowLeft
        {
          OFFSET -1.257047 -26.861477 2.798099
          CHANNELS 3 Zrotation Xrotation Yrotation
          JOINT WristLeft
          {
            OFFSET 0.009974 -21.517759 -2.271181
            CHANNELS 3 Zrotation Xrotation Yrotation
            JOINT HandLeft
            {
              OFFSET 0.365271 -3.631987 -0.690078
              CHANNELS 3 Zrotation Xrotation Yrotation
              JOINT HandTipLeft
              {
                OFFSET 1.913166 -7.453646 -1.866605
                CHANNELS 3 Zrotation Xrotation Yrotation
                End Site
                {
                  OFFSET 0 0 0
                }
              }
              JOINT ThumbLeft
              {
                OFFSET -2.768751 -0.439603 -0.604721
                CHANNELS 3 Zrotation Xrotation Yrotation
                End Site
                {
                  OFFSET 0 0 0
                }
              }
            }
          }
        }
      }
      JOINT ShoulderRight
      {
        OFFSET 10.062086 -4.043121 -11.443262
        CHANNELS 3 Zrotation Xrotation Yrotation
        JOINT ElbowRight
        {
          OFFSET 6.259080 -21.594208 -2.580976
          CHANNELS 3 Zrotation Xrotation Yrotation
          JOINT WristRight
          {
            OFFSET -1.877195 -19.675841 -4.076479
            CHANNELS 3 Zrotation Xrotation Yrotation
            JOINT HandRight
            {
              OFFSET -1.027223 -7.381091 -0.249270
              CHANNELS 3 Zrotation Xrotation Yrotation
              JOINT HandTipRight
              {
                OFFSET -0.768505 -6.762849 -0.349826
                CHANNELS 3 Zrotation Xrotation Yrotation
                End Site
                {
                  OFFSET 0 0 0
                }
              }
              JOINT ThumbRight
              {
                OFFSET 2.604720 -0.516912 -1.761327
                CHANNELS 3 Zrotation Xrotation Yrotation
                End Site
                {
                  OFFSET 0 0 0
                }
              }
            }
          }
        }
      }
    }
  }
  JOINT HipLeft
  {
    OFFSET -5.495748 0.372984 0.082657
    CHANNELS 3 Zrotation Xrotation Yrotation
    JOINT KneeLeft
    {
      OFFSET 6.121403 -28.104711 7.455748
      CHANNELS 3 Zrotation Xrotation Yrotation
      JOINT AnkleLeft
      {
        OFFSET 7.005928 -31.840832 9.594306
        CHANNELS 3 Zrotation Xrotation Yrotation
        JOINT FootLeft
        {
          OFFSET -5.951072 -2.294520 -11.688545
          CHANNELS 3 Zrotation Xrotation Yrotation
          End Site
          {
            OFFSET 0 0 0
          }
        }
      }
    }
  }
  JOINT HipRight
  {
    OFFSET 4.925976 0.923595 -6.470904
    CHANNELS 3 Zrotation Xrotation Yrotation
    JOINT KneeRight
    {
      OFFSET 9.856398 -30.251682 2.513288
      CHANNELS 3 Zrotation Xrotation Yrotation
      JOINT AnkleRight
      {
        OFFSET 4.382430 -28.498258 9.479469
        CHANNELS 3 Zrotation Xrotation Yrotation
        JOINT FootRight
        {
          OFFSET -5.174368 -3.395151 -9.598744
          CHANNELS 3 Zrotation Xrotation Yrotation
          End Site
          {
            OFFSET 0 0 0
          }
        }
      }
    }
  }
}
MOTION
Frames: 6
Frame Time: 0.033333
30.036314 67.863424 343.008355 -0.000000 0.000000 32.163184 0.000000 0.000000 -32.163184 -0.000000 0.000000 0.000000 -0.000000 0.000000 0.000000 0.000000 0.000000 0.000000 -0.000000 0.000000 0.000000 -0.000000 0.000000 0.000000 -0.000000 0.000000 0.000000 -0.000000 0.000000 0.000000 0.000000 0.000000 0.000000 0.000000 0.000000 0.000000 -0.000000 0.000000 0.000000 -0.000000 0.000000 0.000000 -0.000000 0.000000 0.000000 -0.000000 0.000000 0.000000 0.000000 0.000000 0.000000 0.000000 0.000000 0.000000 0.000000 0.000000 -32.163184 -0.000000 0.000000 0.000000 -0.000000 0.000000 0.000000 0.000000 0.000000 0.000000 0.000000 0.000000 -32.163184 -0.000000 0.000000 0.000000 -0.000000 0.000000 0.000000 0.000000 0.000000 0.000000
30.102150 67.892338 342.862115 0.068680 0.267527 32.427609 -0.201429 -0.188982 -32.428102 -0.000000 0.000000 0.000000 -0.000000 0.000000 0.000000 0.000000 0.000000 0.000000 -0.000000 0.000000 0.000000 -0.000000 0.000000 0.000000 0.416471 -1.596241 -0.234408 -1.821020 2.135328 0.782298 0.000000 0.000000 0.000000 0.000000 0.000000 0.000000 -0.000000 0.000000 0.000000 0.910373 -0.147045 -0.173597 -0.098529 -0.614342 0.257913 -0.590348 -0.751401 0.087406 0.000000 0.000000 0.000000 0.000000 0.000000 0.000000 -0.201429 -0.188982 -32.428102 -0.000000 0.000000 0.000000 4.153641 -8.449167 2.061733 0.000000 0.000000 0.000000 -0.201429 -0.188982 -32.428102 -0.000000 0.000000 0.000000 -0.000000 0.000000 0.000000 0.000000 0.000000 0.000000
30.160343 67.911660 342.743110 0.129871 0.485027 32.631895 -0.370922 -0.338432 -32.633540 -0.000000 0.000000 0.000000 -0.000000 0.000000 0.000000 0.000000 0.000000 0.000000 -0.464019 -0.701593 -0.018329 0.608919 1.683696 -0.005235 0.427302 -3.758158 -0.352028 -3.356212 3.682523 1.492632 0.000000 0.000000 0.000000 0.000000 0.000000 0.000000 -0.826594 -0.231176 0.030194 2.328903 0.044023 -0.331136 -0.341793 -0.966170 0.425609 -0.737900 -1.749445 0.201006 0.000000 0.000000 0.000000 0.000000 0.000000 0.000000 -0.370922 -0.338432 -32.633540 -0.000000 0.000000 0.000000 9.514227 -17.958483 5.249890 0.000000 0.000000 0.000000 -1.060439 -0.767932 -32.908312 0.345571 0.735150 0.265898 -0.000000 0.000000 0.000000 0.000000 0.000000 0.000000
30.210892 67.921392 342.651340 0.183527 0.652323 32.775062 -0.507452 -0.449114 -32.778095 -0.000000 0.000000 0.000000 -0.000000 0.000000 0.000000 0.000000 0.000000 0.000000 -0.644269 -1.066231 -0.023181 0.944590 2.390381 -0.028960 0.180562 -4.886939 -0.398018 -4.484615 4.600945 2.028466 0.000000 0.000000 0.000000 0.000000 0.000000 0.000000 -0.967413 -0.309771 0.023292 2.745558 0.193616 -0.394392 -0.766237 -1.032924 0.493196 -0.412259 -3.013825 0.337134 0.000000 0.000000 0.000000 0.000000 0.000000 0.000000 -0.507452 -0.449114 -32.778095 -0.000000 0.000000 0.000000 15.648215 -26.884187 9.412779 0.000000 0.000000 0.000000 -1.388168 -0.963632 -33.123841 0.456510 0.912075 0.331254 -0.000000 0.000000 0.000000 0.000000 0.000000 0.000000
30.253797 67.921531 342.586805 0.229614 0.769301 32.856502 -0.610277 -0.521646 -32.860822 -0.000000 0.000000 0.000000 -0.000000 0.000000 0.000000 0.000000 0.000000 0.000000 -0.789913 -1.440157 -0.024773 1.298691 3.007342 -0.067727 -0.358702 -5.541210 -0.374961 -5.062649 4.855469 2.284456 0.000000 0.000000 0.000000 0.000000 0.000000 0.000000 -0.943423 -0.367481 0.003231 2.682394 0.433819 -0.388600 -1.738408 -0.078031 0.365976 0.754580 -5.277297 0.597726 0.000000 0.000000 0.000000 0.000000 0.000000 0.000000 -0.610277 -0.521646 -32.860822 -0.000000 0.000000 0.000000 21.228833 -33.414803 13.476360 0.000000 0.000000 0.000000 -1.576282 -1.035961 -33.230004 0.870327 1.715740 0.575927 -0.351603 -0.752759 -0.234623 0.000000 0.000000 0.000000
30.289059 67.912080 342.549506 0.268106 0.835908 32.875943 -0.678943 -0.556478 -32.881196 -0.000000 0.000000 0.000000 -0.000000 0.000000 0.000000 0.000000 0.000000 0.000000 -0.900868 -1.823415 -0.022795 1.668737 3.536069 -0.121795 -1.186226 -5.734048 -0.284828 -4.961134 4.431202 2.180371 0.000000 0.000000 0.000000 0.000000 0.000000 0.000000 -0.758172 -0.406049 -0.029831 2.142573 0.766108 -0.311036 -2.247987 -0.237562 0.322847 1.747722 -6.390557 0.709380 0.000000 0.000000 0.000000 0.000000 0.000000 0.000000 -1.435541 -0.693129 -33.152733 0.558723 0.528095 0.260712 24.440481 -36.642914 15.752621 0.000000 0.000000 0.000000 -1.622254 -0.984881 -33.224766 0.946170 1.596592 0.560807 -0.398749 -0.717581 -0.245105 0.000000 0.000000 0.000000
